<svg id="Logo" xmlns="http://www.w3.org/2000/svg" viewBox="0 0 500 500"><defs><style>.cls-1{fill:#3d0f0f;}.cls-2{fill:#ef2525;}</style></defs><rect id="Background" class="cls-1" width="500" height="500" rx="73.43"/><path class="cls-2" d="M367,148.74H141.56a36.49,36.49,0,0,0-36.44,36.44V314.82a36.49,36.49,0,0,0,36.44,36.44H367a36.48,36.48,0,0,0,36.43-36.44V185.18A36.47,36.47,0,0,0,367,148.74Zm-17.81,23.77-94.91,61.15-94.91-61.15Zm17.81,155H141.56a12.69,12.69,0,0,1-12.67-12.67v-129l118.05,75.91c.16.1.33.16.49.25l.52.28a13.73,13.73,0,0,0,2.82,1.1c.1,0,.2,0,.3.06a13.88,13.88,0,0,0,3.19.41h0a13.44,13.44,0,0,0,3.2-.41l.29-.06a13.73,13.73,0,0,0,2.82-1.1l.52-.28c.16-.09.34-.15.49-.25l118.05-75.91v129A12.69,12.69,0,0,1,367,327.49Z" transform="translate(1.31 0)"/></svg>